<?xml version="1.0" standalone="no"?>
<!DOCTYPE svg PUBLIC "-//W3C//DTD SVG 20010904//EN"
 "http://www.w3.org/TR/2001/REC-SVG-20010904/DTD/svg10.dtd">
<svg version="1.0" xmlns="http://www.w3.org/2000/svg"
 width="316.000000pt" height="325.000000pt" viewBox="0 0 316.000000 325.000000"
 preserveAspectRatio="xMidYMid meet">

<g transform="translate(0.000000,325.000000) scale(0.100000,-0.100000)"
fill="#ffff00" stroke="none">
<path d="M1490 2949 c-68 -31 -350 -124 -484 -159 -175 -46 -382 -86 -546
-105 -80 -9 -152 -20 -160 -25 -13 -6 -15 -86 -15 -626 0 -556 2 -628 18 -709
90 -449 297 -785 618 -1001 170 -115 324 -184 533 -239 l92 -25 75 20 c637
166 1031 582 1161 1220 23 113 23 126 23 734 0 540 -2 620 -15 626 -8 5 -76
15 -150 24 -139 17 -145 17 -270 41 -206 38 -437 102 -650 180 -85 31 -162 58
-170 60 -8 2 -35 -5 -60 -16z m25 -1440 l0 -1374 -25 3 c-48 5 -216 64 -317
112 -382 181 -636 478 -767 896 -60 195 -61 205 -61 859 l0 599 30 7 c17 4 86
15 155 24 155 21 363 64 529 110 136 37 345 105 401 129 19 8 40 14 45 12 7
-2 10 -469 10 -1377z m102 1370 c272 -106 657 -206 943 -244 69 -9 139 -20
155 -24 l30 -7 0 -609 c0 -596 -1 -612 -23 -710 -50 -221 -139 -430 -252 -587
-125 -175 -331 -346 -534 -442 -95 -46 -285 -113 -333 -118 l-28 -3 -2 1369
c-2 752 0 1372 3 1377 7 11 7 11 41 -2z"/>
<path d="M814 2176 c-77 -28 -123 -64 -168 -129 -87 -126 -62 -308 53 -392 45
-34 153 -81 206 -91 44 -8 150 -51 191 -77 81 -51 110 -111 101 -205 -19 -178
-208 -240 -433 -143 -71 31 -97 63 -129 159 -24 74 -29 82 -52 82 l-25 0 7
-142 c4 -79 10 -146 13 -149 4 -4 50 -17 102 -29 52 -12 109 -26 127 -30 49
-12 187 -10 246 4 152 36 253 135 276 271 16 96 2 164 -49 236 -33 45 -142
102 -285 148 -158 51 -200 74 -237 126 -36 52 -49 155 -25 202 23 44 81 91
129 104 94 25 253 -12 298 -68 11 -14 29 -58 42 -99 20 -67 24 -74 47 -74 l26
0 2 134 c2 120 0 135 -15 140 -68 22 -221 44 -296 44 -69 0 -106 -5 -152 -22z"/>
<path d="M1692 2162 c-6 -18 -2 -20 64 -37 32 -9 65 -23 72 -32 9 -13 12 -126
12 -484 0 -505 2 -489 -53 -504 -77 -21 -98 -30 -95 -43 3 -11 70 -14 427 -13
234 1 426 3 428 4 5 6 8 317 3 318 -29 5 -50 5 -51 0 -5 -38 -38 -177 -53
-221 l-12 -35 -222 -3 c-174 -2 -222 0 -222 10 -4 122 2 963 6 969 7 13 72 39
101 41 28 3 49 23 34 32 -5 4 -105 8 -222 9 -165 2 -213 -1 -217 -11z"/>
</g>
</svg>
